<svg xmlns="http://www.w3.org/2000/svg" viewBox="0 0 64 64" role="img" aria-label="Beach umbrella">
  <path d="M8 33C13 18 25 10 39 12C50 14 58 23 60 37C51 31 44 33 38 43C32 34 25 34 18 42C16 36 13 33 8 33Z" fill="#2f5963"/>
  <path d="M30 15C23 20 18 29 18 42C25 34 32 34 38 43C37 31 39 22 45 14C40 12 35 12 30 15Z" fill="#9ecdc8"/>
  <path d="M34 40L26 58" stroke="#2f5963" stroke-width="5" stroke-linecap="round"/>
  <path d="M17 59C26 55 36 55 48 59" stroke="#9ecdc8" stroke-width="4" stroke-linecap="round" fill="none"/>
</svg>
